<mxfile host="app.diagrams.net" modified="2024-04-18T15:26:27.080Z" agent="Mozilla/5.0 (Windows NT 10.0; Win64; x64) AppleWebKit/537.36 (KHTML, like Gecko) Chrome/123.0.0.0 Safari/537.36 Edg/123.0.0.0" etag="wzBGOMScvoBC1oxZY2Q5" version="24.2.5" type="device">
  <diagram name="Página-1" id="Ck5LdreI7jKcAqPaRWeQ">
    <mxGraphModel dx="2227" dy="2358" grid="1" gridSize="10" guides="1" tooltips="1" connect="1" arrows="1" fold="1" page="1" pageScale="1" pageWidth="827" pageHeight="1169" math="0" shadow="0">
      <root>
        <mxCell id="0" />
        <mxCell id="1" parent="0" />
        <mxCell id="gpQwVP7LWy22VClzI1ZT-2" value="Home" style="swimlane;horizontal=0;whiteSpace=wrap;html=1;" vertex="1" parent="1">
          <mxGeometry x="40" y="40" width="960" height="200" as="geometry" />
        </mxCell>
        <mxCell id="gpQwVP7LWy22VClzI1ZT-5" value="Acessa o site" style="rounded=1;whiteSpace=wrap;html=1;" vertex="1" parent="gpQwVP7LWy22VClzI1ZT-2">
          <mxGeometry x="60" y="70" width="120" height="60" as="geometry" />
        </mxCell>
        <mxCell id="gpQwVP7LWy22VClzI1ZT-6" value="Realiza o login" style="rounded=1;whiteSpace=wrap;html=1;" vertex="1" parent="gpQwVP7LWy22VClzI1ZT-2">
          <mxGeometry x="240" y="70" width="120" height="60" as="geometry" />
        </mxCell>
        <mxCell id="gpQwVP7LWy22VClzI1ZT-7" value="" style="endArrow=classic;html=1;rounded=0;exitX=1;exitY=0.5;exitDx=0;exitDy=0;entryX=0;entryY=0.5;entryDx=0;entryDy=0;" edge="1" parent="gpQwVP7LWy22VClzI1ZT-2" source="gpQwVP7LWy22VClzI1ZT-5" target="gpQwVP7LWy22VClzI1ZT-6">
          <mxGeometry width="50" height="50" relative="1" as="geometry">
            <mxPoint x="350" y="190" as="sourcePoint" />
            <mxPoint x="400" y="140" as="targetPoint" />
          </mxGeometry>
        </mxCell>
        <mxCell id="gpQwVP7LWy22VClzI1ZT-19" value="Exibe mensagem de erro" style="rounded=1;whiteSpace=wrap;html=1;" vertex="1" parent="gpQwVP7LWy22VClzI1ZT-2">
          <mxGeometry x="540" y="70" width="120" height="60" as="geometry" />
        </mxCell>
        <mxCell id="gpQwVP7LWy22VClzI1ZT-3" value="Sistema" style="swimlane;horizontal=0;whiteSpace=wrap;html=1;" vertex="1" parent="1">
          <mxGeometry x="40" y="240" width="960" height="200" as="geometry" />
        </mxCell>
        <mxCell id="gpQwVP7LWy22VClzI1ZT-10" value="Valida as credenciais" style="rounded=1;whiteSpace=wrap;html=1;" vertex="1" parent="gpQwVP7LWy22VClzI1ZT-3">
          <mxGeometry x="240" y="60" width="120" height="60" as="geometry" />
        </mxCell>
        <mxCell id="gpQwVP7LWy22VClzI1ZT-11" value="" style="rhombus;whiteSpace=wrap;html=1;" vertex="1" parent="gpQwVP7LWy22VClzI1ZT-3">
          <mxGeometry x="410" y="50" width="80" height="80" as="geometry" />
        </mxCell>
        <mxCell id="gpQwVP7LWy22VClzI1ZT-12" value="" style="endArrow=classic;html=1;rounded=0;exitX=1;exitY=0.5;exitDx=0;exitDy=0;" edge="1" parent="gpQwVP7LWy22VClzI1ZT-3" source="gpQwVP7LWy22VClzI1ZT-10" target="gpQwVP7LWy22VClzI1ZT-11">
          <mxGeometry width="50" height="50" relative="1" as="geometry">
            <mxPoint x="400" y="280" as="sourcePoint" />
            <mxPoint x="450" y="230" as="targetPoint" />
          </mxGeometry>
        </mxCell>
        <mxCell id="gpQwVP7LWy22VClzI1ZT-15" value="Credenciais válidas" style="text;html=1;align=center;verticalAlign=middle;whiteSpace=wrap;rounded=0;" vertex="1" parent="gpQwVP7LWy22VClzI1ZT-3">
          <mxGeometry x="460" y="150" width="60" height="30" as="geometry" />
        </mxCell>
        <mxCell id="gpQwVP7LWy22VClzI1ZT-21" value="Credenciais inválidas" style="text;html=1;align=center;verticalAlign=middle;whiteSpace=wrap;rounded=0;" vertex="1" parent="gpQwVP7LWy22VClzI1ZT-3">
          <mxGeometry x="500" y="50" width="60" height="30" as="geometry" />
        </mxCell>
        <mxCell id="gpQwVP7LWy22VClzI1ZT-22" value="" style="endArrow=classic;html=1;rounded=0;exitX=0.5;exitY=0;exitDx=0;exitDy=0;" edge="1" parent="gpQwVP7LWy22VClzI1ZT-3" source="gpQwVP7LWy22VClzI1ZT-19">
          <mxGeometry width="50" height="50" relative="1" as="geometry">
            <mxPoint x="650" y="90" as="sourcePoint" />
            <mxPoint x="600" y="-160" as="targetPoint" />
          </mxGeometry>
        </mxCell>
        <mxCell id="gpQwVP7LWy22VClzI1ZT-23" value="" style="endArrow=classic;html=1;rounded=0;" edge="1" parent="gpQwVP7LWy22VClzI1ZT-3">
          <mxGeometry width="50" height="50" relative="1" as="geometry">
            <mxPoint x="600" y="-160" as="sourcePoint" />
            <mxPoint x="310" y="-160" as="targetPoint" />
          </mxGeometry>
        </mxCell>
        <mxCell id="gpQwVP7LWy22VClzI1ZT-4" value="Perfil" style="swimlane;horizontal=0;whiteSpace=wrap;html=1;" vertex="1" parent="1">
          <mxGeometry x="40" y="440" width="960" height="200" as="geometry" />
        </mxCell>
        <mxCell id="gpQwVP7LWy22VClzI1ZT-16" value="Acessa o perfil" style="rounded=1;whiteSpace=wrap;html=1;" vertex="1" parent="gpQwVP7LWy22VClzI1ZT-4">
          <mxGeometry x="390" y="85" width="120" height="60" as="geometry" />
        </mxCell>
        <mxCell id="gpQwVP7LWy22VClzI1ZT-8" value="" style="endArrow=classic;html=1;rounded=0;exitX=0.5;exitY=1;exitDx=0;exitDy=0;" edge="1" parent="1" source="gpQwVP7LWy22VClzI1ZT-6">
          <mxGeometry width="50" height="50" relative="1" as="geometry">
            <mxPoint x="390" y="280" as="sourcePoint" />
            <mxPoint x="340" y="280" as="targetPoint" />
          </mxGeometry>
        </mxCell>
        <mxCell id="gpQwVP7LWy22VClzI1ZT-13" value="" style="endArrow=classic;html=1;rounded=0;exitX=0.5;exitY=1;exitDx=0;exitDy=0;" edge="1" parent="1" source="gpQwVP7LWy22VClzI1ZT-11">
          <mxGeometry width="50" height="50" relative="1" as="geometry">
            <mxPoint x="670" y="360" as="sourcePoint" />
            <mxPoint x="490" y="520" as="targetPoint" />
          </mxGeometry>
        </mxCell>
        <mxCell id="gpQwVP7LWy22VClzI1ZT-14" value="" style="endArrow=classic;html=1;rounded=0;exitX=1;exitY=0.5;exitDx=0;exitDy=0;" edge="1" parent="1" source="gpQwVP7LWy22VClzI1ZT-11">
          <mxGeometry width="50" height="50" relative="1" as="geometry">
            <mxPoint x="670" y="360" as="sourcePoint" />
            <mxPoint x="640" y="330" as="targetPoint" />
          </mxGeometry>
        </mxCell>
        <mxCell id="gpQwVP7LWy22VClzI1ZT-17" value="&lt;font style=&quot;font-size: 24px;&quot;&gt;Fluxo do usuario - processo de login&lt;/font&gt;" style="text;html=1;align=center;verticalAlign=middle;whiteSpace=wrap;rounded=0;" vertex="1" parent="1">
          <mxGeometry x="40" y="-60" width="190" height="100" as="geometry" />
        </mxCell>
        <mxCell id="gpQwVP7LWy22VClzI1ZT-20" value="" style="endArrow=classic;html=1;rounded=0;entryX=0.5;entryY=1;entryDx=0;entryDy=0;" edge="1" parent="1" target="gpQwVP7LWy22VClzI1ZT-19">
          <mxGeometry width="50" height="50" relative="1" as="geometry">
            <mxPoint x="640" y="330" as="sourcePoint" />
            <mxPoint x="570" y="200" as="targetPoint" />
          </mxGeometry>
        </mxCell>
        <mxCell id="gpQwVP7LWy22VClzI1ZT-24" value="" style="endArrow=classic;html=1;rounded=0;entryX=0.583;entryY=0.01;entryDx=0;entryDy=0;entryPerimeter=0;" edge="1" parent="1" target="gpQwVP7LWy22VClzI1ZT-6">
          <mxGeometry width="50" height="50" relative="1" as="geometry">
            <mxPoint x="350" y="80" as="sourcePoint" />
            <mxPoint x="570" y="200" as="targetPoint" />
          </mxGeometry>
        </mxCell>
      </root>
    </mxGraphModel>
  </diagram>
</mxfile>
